<svg width="24" height="24" viewBox="0 0 24 24" fill="none" xmlns="http://www.w3.org/2000/svg">
<path d="M21.7371 17.5038L6.49619 2.26381C5.38666 1.15428 3.79619 0.836189 2.34952 1.43905C0.9 2.03809 0 3.38476 0 4.95428V19.2314C0 21.861 2.13905 24 4.76857 24H19.0457C20.6133 24 21.9609 23.1 22.5609 21.6505C23.1609 20.201 22.8457 18.6133 21.7371 17.5038ZM20.8028 20.9229C20.4981 21.6571 19.8419 22.0952 19.0467 22.0952H4.76857C3.18952 22.0952 1.90476 20.8105 1.90476 19.2314V4.95428C1.90476 4.15905 2.34286 3.50286 3.07809 3.19809C3.32667 3.09524 3.57905 3.04476 3.82762 3.04476C4.31238 3.04476 4.77809 3.23809 5.14952 3.61047L6.68381 5.14476L4.86666 6.9619C4.49428 7.33428 4.49428 7.93619 4.86666 8.30857C5.05238 8.49428 5.29619 8.58762 5.54 8.58762C5.78381 8.58762 6.02762 8.49428 6.21333 8.30857L8.03047 6.49143L9.42666 7.88762L7.60952 9.70476C7.23714 10.0771 7.23714 10.679 7.60952 11.0514C7.79523 11.2371 8.03904 11.3305 8.28285 11.3305C8.52666 11.3305 8.77047 11.2371 8.95619 11.0514L10.7733 9.23428L12.1209 10.581L10.3038 12.3981C9.93142 12.7705 9.93142 13.3724 10.3038 13.7448C10.4895 13.9305 10.7333 14.0238 10.9771 14.0238C11.2209 14.0238 11.4648 13.9305 11.6505 13.7448L13.4676 11.9276L14.8143 13.2743L12.9971 15.0914C12.6248 15.4638 12.6248 16.0657 12.9971 16.4381C13.1829 16.6238 13.4267 16.7171 13.6705 16.7171C13.9143 16.7171 14.1581 16.6238 14.3438 16.4381L16.1609 14.621L17.5076 15.9676L15.6905 17.7848C15.3181 18.1571 15.3181 18.759 15.6905 19.1314C15.8762 19.3171 16.12 19.4105 16.3638 19.4105C16.6076 19.4105 16.8514 19.3171 17.0371 19.1314L18.8543 17.3143L20.3886 18.8486C20.9505 19.4114 21.1048 20.1857 20.8009 20.921L20.8028 20.9229ZM10.1981 16.66C10.4705 16.9324 10.5524 17.3419 10.4048 17.6981C10.2571 18.0543 9.90952 18.2857 9.52476 18.2857H6.66762C6.1419 18.2857 5.71524 17.86 5.71524 17.3333V14.4762C5.71524 14.0914 5.94762 13.7429 6.30285 13.5962C6.65904 13.4476 7.06857 13.5305 7.34095 13.8029L10.1981 16.66Z" fill="white"/>
</svg>
