<svg width="32" height="32" viewBox="0 0 32 32" fill="none" xmlns="http://www.w3.org/2000/svg">
<g clip-path="url(#clip0_1772_292)">
<path d="M27.9999 15.7875V16.2524C27.8472 16.684 27.5417 17.0825 27.0636 17.1688C26.6386 17.2485 25.2838 17.2419 24.8389 17.1887C23.4443 17.036 23.4443 14.9973 24.8389 14.8512C25.2838 14.8047 26.6452 14.798 27.0636 14.8711C27.5417 14.9574 27.8472 15.3559 27.9999 15.7875Z" fill="#34363F"/>
<path d="M16.2591 27.9999H15.7942C15.3625 27.8472 14.9641 27.5417 14.8778 27.0636C14.7981 26.6386 14.8047 25.2838 14.8578 24.8389C15.0106 23.4443 17.0493 23.4443 17.1954 24.8389C17.2419 25.2838 17.2485 26.6452 17.1755 27.0636C17.0892 27.5417 16.6907 27.8472 16.2591 27.9999Z" fill="#34363F"/>
<path d="M15.4087 10.0499C20.7281 9.56509 24.0551 15.6747 20.655 19.8385C17.66 23.5042 11.7032 22.3354 10.3019 17.8396C9.18627 14.2602 11.65 10.3952 15.4021 10.0499H15.4087Z" fill="#34363F"/>
<path d="M9.50524 21.1798C10.4549 21.027 11.1854 22.0165 10.7404 22.8865C10.6076 23.1521 9.23961 24.5201 8.96733 24.6662C7.96456 25.2307 6.8489 24.2213 7.3204 23.1588C7.44658 22.8732 8.86772 21.4388 9.15328 21.2927C9.22632 21.2528 9.41891 21.1864 9.4986 21.1731L9.50524 21.1798Z" fill="#34363F"/>
<path d="M8.15043 7.24079C8.54888 7.18102 8.82116 7.24743 9.13992 7.49314C9.40555 7.69237 10.5876 8.88108 10.7271 9.13343C11.2915 10.176 10.1692 11.2983 9.12663 10.7339C8.86764 10.5944 7.51955 9.23968 7.37345 8.98069C6.99492 8.30332 7.35353 7.36033 8.15043 7.24743V7.24079Z" fill="#34363F"/>
<path d="M23.4044 7.24066C24.5864 7.04143 25.2638 8.28991 24.4934 9.21963C24.2544 9.50519 23.1985 10.581 22.9196 10.7337C21.8969 11.2916 20.7746 10.2025 21.3058 9.1665C21.4453 8.89423 22.8664 7.47973 23.1387 7.34691C23.2184 7.30707 23.318 7.26058 23.411 7.24066H23.4044Z" fill="#34363F"/>
<path d="M22.143 21.1798C22.4285 21.1334 22.7008 21.1931 22.9465 21.3326C23.2121 21.4853 24.5204 22.8069 24.6731 23.0725C25.2575 24.1085 24.1618 25.2374 23.1059 24.6862C22.8402 24.5468 21.4656 23.1787 21.3195 22.9131C20.941 22.2092 21.3527 21.2994 22.143 21.1798Z" fill="#34363F"/>
<path d="M15.8273 4.05981C16.4914 3.95355 17.1223 4.43833 17.1953 5.10242C17.2418 5.54735 17.2485 6.90873 17.1754 7.3271C16.943 8.60214 15.0039 8.55566 14.8578 7.20756C14.8113 6.76263 14.8046 5.40126 14.8777 4.98288C14.9507 4.56451 15.3824 4.13286 15.8273 4.05981Z" fill="#34363F"/>
<path d="M5.01605 14.8644C5.45435 14.798 6.74931 14.8047 7.20089 14.8512C8.58219 15.0039 8.58219 17.0094 7.24074 17.1887C6.78916 17.2485 5.55396 17.2419 5.0891 17.1887C3.72773 17.0426 3.70781 15.0637 5.00941 14.8578L5.01605 14.8644Z" fill="#34363F"/>
</g>
<defs>
<clipPath id="clip0_1772_292">
<rect width="24" height="24" fill="white" transform="translate(4 4)"/>
</clipPath>
</defs>
</svg>
